<mxfile host="app.diagrams.net" agent="Mozilla/5.0 (Windows NT 10.0; Win64; x64; rv:138.0) Gecko/20100101 Firefox/138.0" version="27.0.2">
  <diagram name="Page-1" id="ryxOl6Jp5XQvj-ixOf-y">
    <mxGraphModel dx="1772" dy="504" grid="1" gridSize="10" guides="1" tooltips="1" connect="1" arrows="1" fold="1" page="1" pageScale="1" pageWidth="850" pageHeight="1100" math="0" shadow="0">
      <root>
        <mxCell id="0" />
        <mxCell id="1" parent="0" />
        <mxCell id="I4oNdZqqY_Ih0m4dw7Hn-11" value="" style="edgeStyle=orthogonalEdgeStyle;rounded=0;orthogonalLoop=1;jettySize=auto;html=1;" parent="1" source="I4oNdZqqY_Ih0m4dw7Hn-4" target="I4oNdZqqY_Ih0m4dw7Hn-10" edge="1">
          <mxGeometry relative="1" as="geometry">
            <Array as="points">
              <mxPoint x="180" y="470" />
              <mxPoint x="410" y="470" />
            </Array>
          </mxGeometry>
        </mxCell>
        <mxCell id="I4oNdZqqY_Ih0m4dw7Hn-12" style="edgeStyle=orthogonalEdgeStyle;rounded=0;orthogonalLoop=1;jettySize=auto;html=1;entryX=0.5;entryY=0;entryDx=0;entryDy=0;" parent="1" source="I4oNdZqqY_Ih0m4dw7Hn-4" target="I4oNdZqqY_Ih0m4dw7Hn-9" edge="1">
          <mxGeometry relative="1" as="geometry" />
        </mxCell>
        <mxCell id="I4oNdZqqY_Ih0m4dw7Hn-31" style="edgeStyle=orthogonalEdgeStyle;rounded=0;orthogonalLoop=1;jettySize=auto;html=1;entryX=0.5;entryY=0;entryDx=0;entryDy=0;exitX=0.5;exitY=1;exitDx=0;exitDy=0;" parent="1" source="I4oNdZqqY_Ih0m4dw7Hn-4" target="I4oNdZqqY_Ih0m4dw7Hn-30" edge="1">
          <mxGeometry relative="1" as="geometry">
            <mxPoint x="330" y="380" as="sourcePoint" />
            <Array as="points">
              <mxPoint x="180" y="470" />
              <mxPoint x="830" y="470" />
            </Array>
          </mxGeometry>
        </mxCell>
        <mxCell id="I4oNdZqqY_Ih0m4dw7Hn-4" value="&lt;div style=&quot;font-size: 13px;&quot; align=&quot;left&quot;&gt;&lt;font style=&quot;font-size: 20px;&quot;&gt;Account&lt;/font&gt;&lt;/div&gt;" style="rounded=0;whiteSpace=wrap;html=1;align=left;" parent="1" vertex="1">
          <mxGeometry x="120" y="320" width="120" height="60" as="geometry" />
        </mxCell>
        <mxCell id="I4oNdZqqY_Ih0m4dw7Hn-14" style="edgeStyle=orthogonalEdgeStyle;rounded=0;orthogonalLoop=1;jettySize=auto;html=1;entryX=0.5;entryY=0;entryDx=0;entryDy=0;" parent="1" source="I4oNdZqqY_Ih0m4dw7Hn-9" target="I4oNdZqqY_Ih0m4dw7Hn-13" edge="1">
          <mxGeometry relative="1" as="geometry" />
        </mxCell>
        <mxCell id="I4oNdZqqY_Ih0m4dw7Hn-9" value="UserGroup" style="rounded=0;whiteSpace=wrap;html=1;" parent="1" vertex="1">
          <mxGeometry x="20" y="560" width="120" height="60" as="geometry" />
        </mxCell>
        <mxCell id="I4oNdZqqY_Ih0m4dw7Hn-15" style="edgeStyle=orthogonalEdgeStyle;rounded=0;orthogonalLoop=1;jettySize=auto;html=1;" parent="1" source="I4oNdZqqY_Ih0m4dw7Hn-10" target="I4oNdZqqY_Ih0m4dw7Hn-9" edge="1">
          <mxGeometry relative="1" as="geometry" />
        </mxCell>
        <mxCell id="I4oNdZqqY_Ih0m4dw7Hn-51" style="edgeStyle=orthogonalEdgeStyle;rounded=0;orthogonalLoop=1;jettySize=auto;html=1;entryX=0.5;entryY=0;entryDx=0;entryDy=0;" parent="1" source="I4oNdZqqY_Ih0m4dw7Hn-10" target="I4oNdZqqY_Ih0m4dw7Hn-52" edge="1">
          <mxGeometry relative="1" as="geometry">
            <mxPoint x="410" y="680" as="targetPoint" />
          </mxGeometry>
        </mxCell>
        <mxCell id="I4oNdZqqY_Ih0m4dw7Hn-10" value="User" style="rounded=0;whiteSpace=wrap;html=1;" parent="1" vertex="1">
          <mxGeometry x="350" y="560" width="120" height="60" as="geometry" />
        </mxCell>
        <mxCell id="I4oNdZqqY_Ih0m4dw7Hn-24" style="edgeStyle=orthogonalEdgeStyle;rounded=0;orthogonalLoop=1;jettySize=auto;html=1;" parent="1" source="I4oNdZqqY_Ih0m4dw7Hn-13" target="I4oNdZqqY_Ih0m4dw7Hn-21" edge="1">
          <mxGeometry relative="1" as="geometry" />
        </mxCell>
        <mxCell id="I4oNdZqqY_Ih0m4dw7Hn-26" style="edgeStyle=orthogonalEdgeStyle;rounded=0;orthogonalLoop=1;jettySize=auto;html=1;" parent="1" source="I4oNdZqqY_Ih0m4dw7Hn-13" target="I4oNdZqqY_Ih0m4dw7Hn-25" edge="1">
          <mxGeometry relative="1" as="geometry" />
        </mxCell>
        <mxCell id="I4oNdZqqY_Ih0m4dw7Hn-13" value="Policy" style="rounded=0;whiteSpace=wrap;html=1;" parent="1" vertex="1">
          <mxGeometry x="20" y="680" width="120" height="60" as="geometry" />
        </mxCell>
        <mxCell id="I4oNdZqqY_Ih0m4dw7Hn-16" value="1:n" style="text;html=1;align=center;verticalAlign=middle;whiteSpace=wrap;rounded=0;" parent="1" vertex="1">
          <mxGeometry x="360" y="500" width="60" height="30" as="geometry" />
        </mxCell>
        <mxCell id="I4oNdZqqY_Ih0m4dw7Hn-18" value="1:n" style="text;html=1;align=center;verticalAlign=middle;whiteSpace=wrap;rounded=0;" parent="1" vertex="1">
          <mxGeometry x="30" y="500" width="60" height="30" as="geometry" />
        </mxCell>
        <mxCell id="I4oNdZqqY_Ih0m4dw7Hn-19" value="n:n" style="text;html=1;align=center;verticalAlign=middle;whiteSpace=wrap;rounded=0;" parent="1" vertex="1">
          <mxGeometry x="70" y="630" width="60" height="30" as="geometry" />
        </mxCell>
        <mxCell id="I4oNdZqqY_Ih0m4dw7Hn-21" value="Action" style="rounded=0;whiteSpace=wrap;html=1;" parent="1" vertex="1">
          <mxGeometry x="-50" y="810" width="120" height="60" as="geometry" />
        </mxCell>
        <mxCell id="I4oNdZqqY_Ih0m4dw7Hn-22" value="n:n" style="text;html=1;align=center;verticalAlign=middle;whiteSpace=wrap;rounded=0;" parent="1" vertex="1">
          <mxGeometry y="750" width="60" height="30" as="geometry" />
        </mxCell>
        <mxCell id="I4oNdZqqY_Ih0m4dw7Hn-25" value="Resource" style="rounded=0;whiteSpace=wrap;html=1;" parent="1" vertex="1">
          <mxGeometry x="110" y="810" width="120" height="60" as="geometry" />
        </mxCell>
        <mxCell id="I4oNdZqqY_Ih0m4dw7Hn-27" value="&lt;div&gt;1:1&lt;/div&gt;" style="text;html=1;align=center;verticalAlign=middle;whiteSpace=wrap;rounded=0;" parent="1" vertex="1">
          <mxGeometry x="100" y="750" width="60" height="30" as="geometry" />
        </mxCell>
        <mxCell id="I4oNdZqqY_Ih0m4dw7Hn-33" style="edgeStyle=orthogonalEdgeStyle;rounded=0;orthogonalLoop=1;jettySize=auto;html=1;entryX=0.5;entryY=0;entryDx=0;entryDy=0;" parent="1" source="I4oNdZqqY_Ih0m4dw7Hn-30" target="I4oNdZqqY_Ih0m4dw7Hn-34" edge="1">
          <mxGeometry relative="1" as="geometry">
            <mxPoint x="830" y="660" as="targetPoint" />
          </mxGeometry>
        </mxCell>
        <mxCell id="I4oNdZqqY_Ih0m4dw7Hn-30" value="Project" style="whiteSpace=wrap;html=1;" parent="1" vertex="1">
          <mxGeometry x="770" y="560" width="120" height="60" as="geometry" />
        </mxCell>
        <mxCell id="I4oNdZqqY_Ih0m4dw7Hn-32" value="1:n" style="text;html=1;align=center;verticalAlign=middle;whiteSpace=wrap;rounded=0;" parent="1" vertex="1">
          <mxGeometry x="780" y="500" width="60" height="30" as="geometry" />
        </mxCell>
        <mxCell id="I4oNdZqqY_Ih0m4dw7Hn-36" style="edgeStyle=orthogonalEdgeStyle;rounded=0;orthogonalLoop=1;jettySize=auto;html=1;entryX=0.5;entryY=0;entryDx=0;entryDy=0;" parent="1" source="I4oNdZqqY_Ih0m4dw7Hn-34" target="I4oNdZqqY_Ih0m4dw7Hn-37" edge="1">
          <mxGeometry relative="1" as="geometry">
            <mxPoint x="830" y="760" as="targetPoint" />
          </mxGeometry>
        </mxCell>
        <mxCell id="I4oNdZqqY_Ih0m4dw7Hn-34" value="Board" style="whiteSpace=wrap;html=1;" parent="1" vertex="1">
          <mxGeometry x="770" y="680" width="120" height="60" as="geometry" />
        </mxCell>
        <mxCell id="I4oNdZqqY_Ih0m4dw7Hn-35" value="n:n" style="text;html=1;align=center;verticalAlign=middle;whiteSpace=wrap;rounded=0;" parent="1" vertex="1">
          <mxGeometry x="780" y="630" width="60" height="30" as="geometry" />
        </mxCell>
        <mxCell id="I4oNdZqqY_Ih0m4dw7Hn-40" style="edgeStyle=orthogonalEdgeStyle;rounded=0;orthogonalLoop=1;jettySize=auto;html=1;entryX=0.25;entryY=1;entryDx=0;entryDy=0;" parent="1" source="I4oNdZqqY_Ih0m4dw7Hn-37" target="I4oNdZqqY_Ih0m4dw7Hn-37" edge="1">
          <mxGeometry relative="1" as="geometry">
            <mxPoint x="750" y="900" as="targetPoint" />
            <Array as="points">
              <mxPoint x="750" y="840" />
              <mxPoint x="750" y="890" />
              <mxPoint x="800" y="890" />
            </Array>
          </mxGeometry>
        </mxCell>
        <mxCell id="I4oNdZqqY_Ih0m4dw7Hn-43" style="edgeStyle=orthogonalEdgeStyle;rounded=0;orthogonalLoop=1;jettySize=auto;html=1;" parent="1" source="I4oNdZqqY_Ih0m4dw7Hn-37" edge="1">
          <mxGeometry relative="1" as="geometry">
            <mxPoint x="770" y="930" as="targetPoint" />
          </mxGeometry>
        </mxCell>
        <mxCell id="I4oNdZqqY_Ih0m4dw7Hn-46" style="edgeStyle=orthogonalEdgeStyle;rounded=0;orthogonalLoop=1;jettySize=auto;html=1;" parent="1" source="I4oNdZqqY_Ih0m4dw7Hn-37" edge="1">
          <mxGeometry relative="1" as="geometry">
            <mxPoint x="890" y="930" as="targetPoint" />
          </mxGeometry>
        </mxCell>
        <mxCell id="I4oNdZqqY_Ih0m4dw7Hn-37" value="ListNode" style="whiteSpace=wrap;html=1;" parent="1" vertex="1">
          <mxGeometry x="770" y="810" width="120" height="60" as="geometry" />
        </mxCell>
        <mxCell id="I4oNdZqqY_Ih0m4dw7Hn-41" value="n:n" style="text;html=1;align=center;verticalAlign=middle;resizable=0;points=[];autosize=1;strokeColor=none;fillColor=none;" parent="1" vertex="1">
          <mxGeometry x="720" y="840" width="40" height="30" as="geometry" />
        </mxCell>
        <mxCell id="I4oNdZqqY_Ih0m4dw7Hn-42" value="n:n" style="text;html=1;align=center;verticalAlign=middle;resizable=0;points=[];autosize=1;strokeColor=none;fillColor=none;" parent="1" vertex="1">
          <mxGeometry x="830" y="750" width="40" height="30" as="geometry" />
        </mxCell>
        <mxCell id="I4oNdZqqY_Ih0m4dw7Hn-44" value="Media" style="rounded=0;whiteSpace=wrap;html=1;" parent="1" vertex="1">
          <mxGeometry x="660" y="930" width="120" height="60" as="geometry" />
        </mxCell>
        <mxCell id="I4oNdZqqY_Ih0m4dw7Hn-45" value="n:n" style="text;html=1;align=center;verticalAlign=middle;resizable=0;points=[];autosize=1;strokeColor=none;fillColor=none;" parent="1" vertex="1">
          <mxGeometry x="770" y="900" width="40" height="30" as="geometry" />
        </mxCell>
        <mxCell id="I4oNdZqqY_Ih0m4dw7Hn-48" style="edgeStyle=orthogonalEdgeStyle;rounded=0;orthogonalLoop=1;jettySize=auto;html=1;" parent="1" source="I4oNdZqqY_Ih0m4dw7Hn-47" edge="1">
          <mxGeometry relative="1" as="geometry">
            <mxPoint x="780" y="960" as="targetPoint" />
          </mxGeometry>
        </mxCell>
        <mxCell id="I4oNdZqqY_Ih0m4dw7Hn-47" value="Comment" style="rounded=0;whiteSpace=wrap;html=1;" parent="1" vertex="1">
          <mxGeometry x="870" y="930" width="120" height="60" as="geometry" />
        </mxCell>
        <mxCell id="I4oNdZqqY_Ih0m4dw7Hn-49" value="n:n" style="text;html=1;align=center;verticalAlign=middle;resizable=0;points=[];autosize=1;strokeColor=none;fillColor=none;" parent="1" vertex="1">
          <mxGeometry x="810" y="960" width="40" height="30" as="geometry" />
        </mxCell>
        <mxCell id="I4oNdZqqY_Ih0m4dw7Hn-50" value="1:n" style="text;html=1;align=center;verticalAlign=middle;resizable=0;points=[];autosize=1;strokeColor=none;fillColor=none;" parent="1" vertex="1">
          <mxGeometry x="895" y="900" width="40" height="30" as="geometry" />
        </mxCell>
        <mxCell id="I4oNdZqqY_Ih0m4dw7Hn-55" style="edgeStyle=orthogonalEdgeStyle;rounded=0;orthogonalLoop=1;jettySize=auto;html=1;" parent="1" source="I4oNdZqqY_Ih0m4dw7Hn-52" target="I4oNdZqqY_Ih0m4dw7Hn-53" edge="1">
          <mxGeometry relative="1" as="geometry" />
        </mxCell>
        <mxCell id="I4oNdZqqY_Ih0m4dw7Hn-56" style="edgeStyle=orthogonalEdgeStyle;rounded=0;orthogonalLoop=1;jettySize=auto;html=1;entryX=0.5;entryY=0;entryDx=0;entryDy=0;" parent="1" source="I4oNdZqqY_Ih0m4dw7Hn-52" target="I4oNdZqqY_Ih0m4dw7Hn-54" edge="1">
          <mxGeometry relative="1" as="geometry" />
        </mxCell>
        <mxCell id="I4oNdZqqY_Ih0m4dw7Hn-52" value="TimeBudget" style="rounded=0;whiteSpace=wrap;html=1;" parent="1" vertex="1">
          <mxGeometry x="350" y="680" width="120" height="60" as="geometry" />
        </mxCell>
        <mxCell id="I4oNdZqqY_Ih0m4dw7Hn-57" style="edgeStyle=orthogonalEdgeStyle;rounded=0;orthogonalLoop=1;jettySize=auto;html=1;entryX=0;entryY=0.5;entryDx=0;entryDy=0;" parent="1" source="I4oNdZqqY_Ih0m4dw7Hn-53" target="I4oNdZqqY_Ih0m4dw7Hn-30" edge="1">
          <mxGeometry relative="1" as="geometry">
            <Array as="points">
              <mxPoint x="320" y="890" />
              <mxPoint x="700" y="890" />
              <mxPoint x="700" y="590" />
            </Array>
          </mxGeometry>
        </mxCell>
        <mxCell id="I4oNdZqqY_Ih0m4dw7Hn-53" value="TimeBudgetEntry" style="whiteSpace=wrap;html=1;" parent="1" vertex="1">
          <mxGeometry x="260" y="810" width="120" height="60" as="geometry" />
        </mxCell>
        <mxCell id="I4oNdZqqY_Ih0m4dw7Hn-54" value="TimeBudgetGoal" style="whiteSpace=wrap;html=1;" parent="1" vertex="1">
          <mxGeometry x="430" y="810" width="120" height="60" as="geometry" />
        </mxCell>
        <mxCell id="I4oNdZqqY_Ih0m4dw7Hn-59" value="" style="endArrow=none;html=1;rounded=0;entryX=0.5;entryY=1;entryDx=0;entryDy=0;" parent="1" target="I4oNdZqqY_Ih0m4dw7Hn-54" edge="1">
          <mxGeometry width="50" height="50" relative="1" as="geometry">
            <mxPoint x="490" y="890" as="sourcePoint" />
            <mxPoint x="520" y="910" as="targetPoint" />
          </mxGeometry>
        </mxCell>
        <mxCell id="I4oNdZqqY_Ih0m4dw7Hn-60" value="" style="endArrow=classic;html=1;rounded=0;entryX=0;entryY=0.5;entryDx=0;entryDy=0;" parent="1" target="I4oNdZqqY_Ih0m4dw7Hn-34" edge="1">
          <mxGeometry width="50" height="50" relative="1" as="geometry">
            <mxPoint x="700" y="710" as="sourcePoint" />
            <mxPoint x="770" y="760" as="targetPoint" />
          </mxGeometry>
        </mxCell>
        <mxCell id="I4oNdZqqY_Ih0m4dw7Hn-61" value="" style="endArrow=classic;html=1;rounded=0;" parent="1" edge="1">
          <mxGeometry width="50" height="50" relative="1" as="geometry">
            <mxPoint x="700" y="830" as="sourcePoint" />
            <mxPoint x="770" y="830" as="targetPoint" />
          </mxGeometry>
        </mxCell>
        <mxCell id="I4oNdZqqY_Ih0m4dw7Hn-62" value="n:n" style="text;html=1;align=center;verticalAlign=middle;resizable=0;points=[];autosize=1;strokeColor=none;fillColor=none;" parent="1" vertex="1">
          <mxGeometry x="570" y="888" width="40" height="30" as="geometry" />
        </mxCell>
        <mxCell id="I4oNdZqqY_Ih0m4dw7Hn-63" value="1:n" style="text;html=1;align=center;verticalAlign=middle;resizable=0;points=[];autosize=1;strokeColor=none;fillColor=none;" parent="1" vertex="1">
          <mxGeometry x="330" y="768" width="40" height="30" as="geometry" />
        </mxCell>
        <mxCell id="I4oNdZqqY_Ih0m4dw7Hn-64" value="1:n" style="text;html=1;align=center;verticalAlign=middle;resizable=0;points=[];autosize=1;strokeColor=none;fillColor=none;" parent="1" vertex="1">
          <mxGeometry x="450" y="768" width="40" height="30" as="geometry" />
        </mxCell>
        <mxCell id="I4oNdZqqY_Ih0m4dw7Hn-65" value="1:n" style="text;html=1;align=center;verticalAlign=middle;resizable=0;points=[];autosize=1;strokeColor=none;fillColor=none;" parent="1" vertex="1">
          <mxGeometry x="415" y="630" width="40" height="30" as="geometry" />
        </mxCell>
        <mxCell id="I4oNdZqqY_Ih0m4dw7Hn-66" value="n:n" style="text;html=1;align=center;verticalAlign=middle;resizable=0;points=[];autosize=1;strokeColor=none;fillColor=none;" parent="1" vertex="1">
          <mxGeometry x="230" y="570" width="40" height="30" as="geometry" />
        </mxCell>
      </root>
    </mxGraphModel>
  </diagram>
</mxfile>
